{"title":"Hansel.And.Gretel.Get.Baked.2013.HDRiP.AC3-2.0.XviD-AXED","uid":8124490,"size":1376887807,"categoryP":"video","categoryS":"movies","magnet":"?xt=urn:btih:eb84cd1cb3f90de74e6681237effa96093a28584&amp;dn=Hansel.And.Gretel.Get.Baked.2013.HDRiP.AC3-2.0.XviD-AXED&amp;tr=udp%3A%2F%2Ftracker.openbittorrent.com%3A80&amp;tr=udp%3A%2F%2Fopen.demonii.com%3A1337&amp;tr=udp%3A%2F%2Ftracker.coppersurfer.tk%3A6969&amp;tr=udp%3A%2F%2Fexodus.desync.com%3A6969","seeders":1,"leechers":0,"uploader":"juggs99","files":4,"time":1360462787,"description":"IMDB:  &lt;a href=&quot;\nhttp://www.imdb.com/title/tt2081194&quot; rel=&quot;nofollow&quot; target=&quot;_NEW&quot;&gt;\nhttp://www.imdb.com/title/tt2081194&lt;/a&gt;\n\nPLOT INFO:\nA brother and sister battle a witch who lures teenagers into her suburban home with her special blend of marijuana where she then proceeds to kill and eat them to maintain her youth and beauty.\n\nMEDIAINFO:\nGeneral\nComplete name                            : Hansel.And.Gretel.Get.Baked.2013.HDRiP.AC3-2.0.XviD-AXED.avi\nFormat                                   : AVI\nFormat/Info                              : Audio Video Interleave\nFile size                                : 1.27 GiB\nDuration                                 : 1h 26mn\nOverall bit rate                         : 2 087 Kbps\n\nVideo\nID                                       : 0\nFormat                                   : MPEG-4 Visual\nFormat profile                           : Advanced Simple@L5\nFormat settings, BVOP                    : 2\nFormat settings, QPel                    : No\nFormat settings, GMC                     : No warppoints\nFormat settings, Matrix                  : Default (H.263)\nMuxing mode                              : Packed bitstream\nCodec ID                                 : XVID\nCodec ID/Hint                            : XviD\nDuration                                 : 1h 26mn\nBit rate                                 : 1 888 Kbps\nWidth                                    : 720 pixels\nHeight                                   : 384 pixels\nDisplay aspect ratio                     : 1.85:1\nFrame rate                               : 23.976 fps\nColor space                              : YUV\nChroma subsampling                       : 4:2:0\nBit depth                                : 8 bits\nScan type                                : Progressive\nCompression mode                         : Lossy\nBits/(Pixel*Frame)                       : 0.285\nStream size                              : 1.14 GiB (90%)\nWriting library                          : XviD 64\n\nAudio\nID                                       : 1\nFormat                                   : AC-3\nFormat/Info                              : Audio Coding 3\nMode extension                           : CM (complete main)\nFormat settings, Endianness              : Big\nCodec ID                                 : 2000\nDuration                                 : 1h 26mn\nBit rate mode                            : Constant\nBit rate                                 : 192 Kbps\nChannel(s)                               : 2 channels\nChannel positions                        : Front: L R\nSampling rate                            : 44.1 KHz\nBit depth                                : 16 bits\nCompression mode                         : Lossy\nStream size                              : 119 MiB (9%)\nAlignment                                : Aligned on interleaves\nInterleave, duration                     : 70 ms (1.67 video frames)\nInterleave, preload duration             : 208 ms\nTitle                                    : getbaked (1) - [1]\n\n\n\n\nSOURCE: \n720p Super Secret Source\n\n\nNOTES: \nA new stoner horror comedy twist on the tale of Hansel &amp; Gretel from our own super secret 720p source, enjoy!\n\nAXED! - The only name to trust for VOD/HDRiP!\n\nSCREENS:\n\n &lt;a href=&quot;\nhttp://imageshack.us/a/img838/1808/scrncp00001.png&quot; rel=&quot;nofollow&quot; target=&quot;_NEW&quot;&gt;\nhttp://imageshack.us/a/img838/1808/scrncp00001.png&lt;/a&gt; &lt;a href=&quot;\nhttp://imageshack.us/a/img690/9273/scrncp00011.png&quot; rel=&quot;nofollow&quot; target=&quot;_NEW&quot;&gt;\nhttp://imageshack.us/a/img690/9273/scrncp00011.png&lt;/a&gt; &lt;a href=&quot;\nhttp://imageshack.us/a/img248/6585/scrncp00020.png&quot; rel=&quot;nofollow&quot; target=&quot;_NEW&quot;&gt;\nhttp://imageshack.us/a/img248/6585/scrncp00020.png&lt;/a&gt; &lt;a href=&quot;\nhttp://imageshack.us/a/img9/7941/scrncp00025.png&quot; rel=&quot;nofollow&quot; target=&quot;_NEW&quot;&gt;\nhttp://imageshack.us/a/img9/7941/scrncp00025.png&lt;/a&gt;","torrent":{"xt":"urn:btih:eb84cd1cb3f90de74e6681237effa96093a28584","amp;dn":"Hansel.And.Gretel.Get.Baked.2013.HDRiP.AC3-2.0.XviD-AXED","amp;tr":["udp%3A%2F%2Ftracker.openbittorrent.com%3A80","udp%3A%2F%2Fopen.demonii.com%3A1337","udp%3A%2F%2Ftracker.coppersurfer.tk%3A6969","udp%3A%2F%2Fexodus.desync.com%3A6969"],"infoHash":"eb84cd1cb3f90de74e6681237effa96093a28584","infoHashBuffer":{"type":"Buffer","data":[235,132,205,28,179,249,13,231,78,102,129,35,126,255,169,96,147,162,133,132]},"announce":[],"urlList":[]}}